<svg xmlns="http://www.w3.org/2000/svg" xmlns:xlink="http://www.w3.org/1999/xlink" width="500" zoomAndPan="magnify" viewBox="0 0 375 374.999991" height="500" preserveAspectRatio="xMidYMid meet" version="1.0"><defs><g/></defs><g fill="#d6eaaf" fill-opacity="1"><g transform="translate(60.968192, 345.415451)"><g><path d="M 87.5 0 L 35 -52.5 L 35 -209 L 87.5 -261.5 L 207 -261.5 L 253 -216 L 253 -174.5 L 209 -174.5 L 209 -201.5 L 184 -226.5 L 106.5 -226.5 L 79 -199 L 79 -64.5 L 106.5 -36.5 L 250.5 -36.5 L 250.5 0 Z M 87.5 0 "/></g></g></g><path stroke-linecap="butt" transform="matrix(0.75, 0, 0, 0.75, 37.500002, -251.181605)" fill="none" stroke-linejoin="miter" d="M 118.526047 765.997399 L 48.541667 696.013019 L 48.541667 487.356755 L 118.526047 417.372376 L 277.864599 417.372376 L 339.229186 478.080713 L 339.229186 533.252592 L 280.468766 533.252592 L 280.468766 497.283839 L 247.10418 464.080712 L 143.755215 464.080712 L 107.135421 500.705715 L 107.135421 680.065101 L 143.755215 717.335937 L 335.807311 717.335937 L 335.807311 765.997399 Z M 118.526047 765.997399 " stroke="#b1d569" stroke-width="25.000013" stroke-opacity="1" stroke-miterlimit="4"/></svg>